<?xml version="1.0" encoding="UTF-8"?>
<!-- Created with Inkscape (http://www.inkscape.org/) -->
<svg id="svg55" width="163.84" height="163.84" version="1.1" viewBox="0 0 163.84 163.84" xmlns="http://www.w3.org/2000/svg">
 <g id="g61">
  <g id="g1514" stroke-width=".32">
   <path id="path1546" d="m67.68 160.13c-12.031-0.41418-25.299-2.6099-42.24-6.9902-6.3144-1.6326-14.406-4.8882-18.88-7.5963-2.5391-1.5369-2.9842-1.9464-3.76-3.4598-0.86949-1.6961-0.87998-1.7895-0.87802-7.8193 0.0019699-6.0689 0.634-12.61 1.7581-18.196 3.1434-15.619 3.7715-17.912 8.3893-30.627 3.8911-10.714 5.5344-14.368 12.016-26.72 6.7397-12.845 10.391-18.263 19.628-29.12 3.8272-4.499 6.3037-6.952 12.55-12.431 7.2017-6.3169 12.791-10.124 17.778-12.109 2.188-0.87076 3.1121-1.0538 5.8351-1.1556 3.0557-0.11423 3.3727-0.063774 5.7086 0.90865 3.5717 1.4869 12.3 7.5712 17.219 12.003 0.92218 0.83082 2.6847 2.268 3.9167 3.1937 3.6502 2.7427 8.6959 7.9464 13.332 13.749 2.3904 2.992 5.3052 6.592 6.4773 8 2.942 3.5341 4.5258 5.9608 9.085 13.92 3.8464 6.7147 11.657 22.081 13.988 27.52 3.0232 7.0535 6.609 16.227 7.638 19.54 1.017 3.2743 2.0076 7.9906 3.5245 16.78 0.27336 1.584 0.65957 5.0647 0.85823 7.7349 0.61877 8.317-0.30022 12.9-2.9998 14.959-1.3667 1.0424-5.7635 3.1023-9.5684 4.4827-1.6361 0.59357-4.7748 1.7947-6.9748 2.6692-8.561 3.4029-16.042 5.6788-20.273 6.1678-1.6098 0.18603-4.5828 0.68575-6.6068 1.1105-4.6074 0.96685-12.821 2.2175-18.863 2.8723-4.4167 0.47863-21.769 0.84933-28.657 0.6122z" fill="#f135c3"/>
   <path id="path1544" d="m67.68 160.13c-12.031-0.41418-25.299-2.6099-42.24-6.9902-6.3144-1.6326-14.406-4.8882-18.88-7.5963-2.5391-1.5369-2.9842-1.9464-3.76-3.4598-0.86949-1.6961-0.87998-1.7895-0.87802-7.8193 0.0019699-6.0689 0.634-12.61 1.7581-18.196 3.1434-15.619 3.7715-17.912 8.3893-30.627 3.8911-10.714 5.5344-14.368 12.016-26.72 6.7397-12.845 10.391-18.263 19.628-29.12 3.8272-4.499 6.3037-6.952 12.55-12.431 7.2017-6.3169 12.791-10.124 17.778-12.109 2.188-0.87076 3.1121-1.0538 5.8351-1.1556 3.0557-0.11423 3.3727-0.063774 5.7086 0.90865 3.5717 1.4869 12.3 7.5712 17.219 12.003 0.92218 0.83082 2.6847 2.268 3.9167 3.1937 3.6502 2.7427 8.6959 7.9464 13.332 13.749 2.3904 2.992 5.3052 6.592 6.4773 8 2.942 3.5341 4.5258 5.9608 9.085 13.92 3.8464 6.7147 11.657 22.081 13.988 27.52 3.0232 7.0535 6.609 16.227 7.638 19.54 1.017 3.2743 2.0076 7.9906 3.5245 16.78 0.27336 1.584 0.65957 5.0647 0.85823 7.7349 0.61877 8.317-0.30022 12.9-2.9998 14.959-1.3667 1.0424-5.7635 3.1023-9.5684 4.4827-1.6361 0.59357-4.7748 1.7947-6.9748 2.6692-8.561 3.4029-16.042 5.6788-20.273 6.1678-1.6098 0.18603-4.5828 0.68575-6.6068 1.1105-4.6074 0.96685-12.821 2.2175-18.863 2.8723-4.4167 0.47863-21.769 0.84933-28.657 0.6122zm-15.843-125.66c5.1076-1.547 6.581-2.1129 6.6663-2.5606 0.14538-0.76348-2.2128-8.2253-2.5994-8.2253-0.80683 0-11.744 11.663-11.744 12.523 0 0.50588 1.0688 0.264 7.6769-1.7374z" fill="#f347a3"/>
   <path id="path1542" d="m67.68 160.13c-12.031-0.41418-25.299-2.6099-42.24-6.9902-6.3144-1.6326-14.406-4.8882-18.88-7.5963-2.5391-1.5369-2.9842-1.9464-3.76-3.4598-0.86949-1.6961-0.87998-1.7895-0.87802-7.8193 0.0019699-6.0689 0.634-12.61 1.7581-18.196 3.1434-15.619 3.7715-17.912 8.3893-30.627 3.8911-10.714 5.5344-14.368 12.016-26.72 6.7397-12.845 10.391-18.263 19.628-29.12 3.8272-4.499 6.3037-6.952 12.55-12.431 7.2017-6.3169 12.791-10.124 17.778-12.109 2.188-0.87076 3.1121-1.0538 5.8351-1.1556 3.0557-0.11423 3.3727-0.063774 5.7086 0.90865 3.5717 1.4869 12.3 7.5712 17.219 12.003 0.92218 0.83082 2.6847 2.268 3.9167 3.1937 3.6502 2.7427 8.6959 7.9464 13.332 13.749 2.3904 2.992 5.3052 6.592 6.4773 8 2.942 3.5341 4.5258 5.9608 9.085 13.92 3.8464 6.7147 11.657 22.081 13.988 27.52 3.0232 7.0535 6.609 16.227 7.638 19.54 1.017 3.2743 2.0076 7.9906 3.5245 16.78 0.27336 1.584 0.65957 5.0647 0.85823 7.7349 0.61877 8.317-0.30022 12.9-2.9998 14.959-1.3667 1.0424-5.7635 3.1023-9.5684 4.4827-1.6361 0.59357-4.7748 1.7947-6.9748 2.6692-8.561 3.4029-16.042 5.6788-20.273 6.1678-1.6098 0.18603-4.5828 0.68575-6.6068 1.1105-4.6074 0.96685-12.821 2.2175-18.863 2.8723-4.4167 0.47863-21.769 0.84933-28.657 0.6122zm-7.5881-92.669c1.4585-0.20129 2.8478-0.52194 3.0872-0.71257 0.41906-0.33366-1.0499-1.7553-9.5159-9.2092l-1.3432-1.1826 7.68-7.6203c6.3427-6.2934 21.338-20.619 32.08-30.647 1.276-1.1912 2.32-2.279 2.32-2.4174s-0.972-1.0126-2.16-1.9428c-1.9173-1.5012-2.0459-1.5604-1.1445-0.52601 1.0029 1.1509 1.0104 1.1844 0.60402 2.7021-0.68269 2.55-1.5157 3.5648-7.438 9.061-10.946 10.159-35.776 33.709-36.11 34.249-0.29251 0.47329-1.0216 0.36252-1.2326-0.18726-0.1042-0.27154-0.77185-5.1315-1.4837-10.8-0.71181-5.6685-1.4137-10.522-1.5597-10.786-0.14599-0.264-0.42107-0.48-0.61128-0.48-0.38439 0-5.3292 6.3678-7.616 9.8076-0.80838 1.216-1.3949 2.406-1.3034 2.6445s2.8123 2.5023 6.0462 5.0308c3.2339 2.5285 6.19 4.9718 6.5692 5.4295 0.5489 0.66273 0.76583 1.5756 1.0646 4.48 0.20637 2.0062 0.49401 3.8768 0.6392 4.1568 0.24034 0.46361 0.64488 0.45579 4.5199-0.08744 2.3408-0.32814 5.4493-0.76131 6.9078-0.9626zm-8.255-32.993c5.1076-1.547 6.581-2.1129 6.6663-2.5606 0.14538-0.76348-2.2128-8.2253-2.5994-8.2253-0.80683 0-11.744 11.663-11.744 12.523 0 0.50588 1.0688 0.264 7.6769-1.7374z" fill="#f45393"/>
   <path id="path1540" d="m67.68 160.13c-12.031-0.41418-25.299-2.6099-42.24-6.9902-6.3144-1.6326-14.406-4.8882-18.88-7.5963-2.5391-1.5369-2.9842-1.9464-3.76-3.4598-0.86949-1.6961-0.87998-1.7895-0.87802-7.8193 0.0019699-6.0689 0.634-12.61 1.7581-18.196 3.1434-15.619 3.7715-17.912 8.3893-30.627 3.8911-10.714 5.5344-14.368 12.016-26.72 6.7397-12.845 10.391-18.263 19.628-29.12 3.8272-4.499 6.3037-6.952 12.55-12.431 7.2017-6.3169 12.791-10.124 17.778-12.109 2.188-0.87076 3.1121-1.0538 5.8351-1.1556 3.0557-0.11423 3.3727-0.063774 5.7086 0.90865 3.5717 1.4869 12.3 7.5712 17.219 12.003 0.92218 0.83082 2.6847 2.268 3.9167 3.1937 3.6502 2.7427 8.6959 7.9464 13.332 13.749 2.3904 2.992 5.3052 6.592 6.4773 8 2.942 3.5341 4.5258 5.9608 9.085 13.92 3.8464 6.7147 11.657 22.081 13.988 27.52 3.0232 7.0535 6.609 16.227 7.638 19.54 1.017 3.2743 2.0076 7.9906 3.5245 16.78 0.27336 1.584 0.65957 5.0647 0.85823 7.7349 0.61877 8.317-0.30022 12.9-2.9998 14.959-1.3667 1.0424-5.7635 3.1023-9.5684 4.4827-1.6361 0.59357-4.7748 1.7947-6.9748 2.6692-8.561 3.4029-16.042 5.6788-20.273 6.1678-1.6098 0.18603-4.5828 0.68575-6.6068 1.1105-4.6074 0.96685-12.821 2.2175-18.863 2.8723-4.4167 0.47863-21.769 0.84933-28.657 0.6122zm-48.58-17.908c3.107-0.80294 6.0415-1.6628 6.5211-1.9108 0.47962-0.24802 1.4687-0.54637 2.198-0.66298 1.5364-0.24569 1.5836-0.87773 0.07657-1.0266-0.55844-0.05515-1.0154-0.23789-1.0154-0.40609 0-0.27047 0.92869-0.18004 2.1854 0.21281 0.61537 0.19237 1.9746-0.20103 1.9746-0.5715 0-0.40276-3.509-8.1555-6.7636-14.943-1.384-2.8865-2.5164-5.5768-2.5164-5.9784 0-0.47948 0.24723-0.8049 0.72-0.94771 1.9939-0.60231 33.331-15.901 33.66-16.433 0.28613-0.46297-1.1129-1.3129-2.1611-1.3129-0.61631 0-1.812-0.64466-3.6303-1.9573-2.4343-1.7573-2.8759-1.9598-4.3228-1.9816-1.2603-0.019008-1.7033-0.16782-2.0327-0.6827-0.37212-0.58167-2.7198-9.7054-5.0967-19.807-0.44886-1.9076-0.81611-4.3241-0.81611-5.37 0-1.3014-0.13638-1.954-0.43204-2.0675-0.23762-0.09118-1.9296 0.14426-3.76 0.52322-1.8304 0.37895-4.5395 0.74256-6.0202 0.80801-2.1346 0.09435-2.8765 0.26025-3.5821 0.80098-1.8679 1.4315-5.9681 10.887-10.049 23.174-0.58458 1.76-1.4448 4.2058-1.9116 5.4351-0.90613 2.3863-2.6748 9.6678-3.499 14.405-0.27558 1.584-0.64217 3.3693-0.81464 3.9672s-0.46403 2.254-0.64793 3.68c-0.18389 1.426-0.56081 4.2508-0.8376 6.2773-0.64115 4.6942-0.53275 14.001 0.17297 14.85 0.25223 0.30348 0.97223 0.83676 1.6 1.185 0.62777 0.3483 1.7174 0.98341 2.4214 1.4114s1.6064 0.78045 2.0053 0.78335c0.39892 3e-3 3.2674-0.65169 6.3744-1.4546zm51.919-66.349c0.36398-0.51117 0.66179-1.0289 0.66179-1.1506s0.29685-0.63809 0.65966-1.1476c0.36281-0.50953 0.6527-1.1798 0.6442-1.4894-0.0085-0.30964-0.02326-0.77899-0.03283-1.043-0.0096-0.264 0.11378-1.0951 0.27409-1.8469 0.16446-0.77128 0.1702-1.4418 0.01318-1.5389-0.66759-0.41259-0.12833-0.73976 2.0417-1.2387 1.276-0.2934 2.608-0.60052 2.96-0.6825 0.352-0.08198 2.728-0.50005 5.28-0.92903 6.0647-1.0195 10.726-1.9661 11.321-2.299 0.36274-0.203-0.79784-1.3948-4.8623-4.9931-2.9363-2.5995-8.0028-7.1134-11.259-10.031-3.256-2.9174-6.4822-5.7751-7.1694-6.3504l-1.2494-1.046 1.4094-1.7223c1.6321-1.9945 16.079-16.023 20.209-19.624 1.54-1.3427 2.7921-2.616 2.7823-2.8296-0.0097-0.21356-1.0537-1.1689-2.32-2.1231-2.0577-1.5505-1.9823-1.7648-1.2869-0.5768 0.70626 1.2064 2.3113 1.6999 1.3111 2.8274-1.7518 1.9748-2.2228 3.4322-8.1451 8.9284-10.946 10.159-35.776 33.709-36.11 34.249-0.29358 0.47502-1.022 0.3617-1.2345-0.19204-0.10521-0.27418-0.78663-5.2062-1.5143-10.96-0.8942-7.071-1.4705-10.617-1.7782-10.941-0.53018-0.55902-0.15575-0.96468-4.8736 5.28-3.7776 5.0001-4.9304 6.7998-4.715 7.361 0.08896 0.23182 2.9754 2.6007 6.4142 5.2641 7.0849 5.4873 6.5759 4.7377 7.2541 10.684 0.26418 2.3165 0.53885 3.5242 0.82667 3.6346 0.23707 0.09097 2.4106-0.12342 4.83-0.47644l4.3989-0.64184 1.28 0.75122c0.704 0.41317 3.296 2.3357 5.76 4.2722 2.464 1.9366 4.7222 3.5278 5.0182 3.536 0.29601 0.0082 0.83601-0.40328 1.2-0.91445zm63.382-13.734c0-0.53162-6.6354-11.488-8.3798-13.837-0.98886-1.3315-2.7782-3.4915-3.9763-4.8s-2.2906-2.5232-2.4279-2.6992c-0.85182-1.0924-3.5204-4.3179-3.5638-4.3076-1.9379 0.46068-5.1765 1.6002-5.26 1.8507-0.09135 0.27405 23.148 24.057 23.507 24.057 0.05516 0 0.10029-0.11874 0.10029-0.26387zm-82.563-27.67c5.1076-1.547 6.581-2.1129 6.6663-2.5606 0.14538-0.76348-2.2128-8.2253-2.5994-8.2253-0.80683 0-11.744 11.663-11.744 12.523 0 0.50588 1.0688 0.264 7.6769-1.7374z" fill="#ee39b3"/>
   <path id="path1538" d="m67.68 160.13c-12.031-0.41418-25.299-2.6099-42.24-6.9902-6.3144-1.6326-14.406-4.8882-18.88-7.5963-2.5391-1.5369-2.9842-1.9464-3.76-3.4598-0.86949-1.6961-0.87998-1.7895-0.87802-7.8193 0.0019699-6.0689 0.634-12.61 1.7581-18.196 3.1434-15.619 3.7715-17.912 8.3893-30.627 3.8911-10.714 5.5344-14.368 12.016-26.72 6.7397-12.845 10.391-18.263 19.628-29.12 3.8272-4.499 6.3037-6.952 12.55-12.431 7.2017-6.3169 12.791-10.124 17.778-12.109 2.188-0.87076 3.1121-1.0538 5.8351-1.1556 3.0557-0.11423 3.3727-0.063774 5.7086 0.90865 3.5717 1.4869 12.3 7.5712 17.219 12.003 0.92218 0.83082 2.6847 2.268 3.9167 3.1937 3.6502 2.7427 8.6959 7.9464 13.332 13.749 2.3904 2.992 5.3052 6.592 6.4773 8 2.942 3.5341 4.5258 5.9608 9.085 13.92 3.8464 6.7147 11.657 22.081 13.988 27.52 3.0232 7.0535 6.609 16.227 7.638 19.54 1.017 3.2743 2.0076 7.9906 3.5245 16.78 0.27336 1.584 0.65957 5.0647 0.85823 7.7349 0.61877 8.317-0.30022 12.9-2.9998 14.959-1.3667 1.0424-5.7635 3.1023-9.5684 4.4827-1.6361 0.59357-4.7748 1.7947-6.9748 2.6692-8.561 3.4029-16.042 5.6788-20.273 6.1678-1.6098 0.18603-4.5828 0.68575-6.6068 1.1105-4.6074 0.96685-12.821 2.2175-18.863 2.8723-4.4167 0.47863-21.769 0.84933-28.657 0.6122zm-48.58-17.908c3.107-0.80294 6.0415-1.6628 6.5211-1.9108 0.47962-0.24802 1.4687-0.54637 2.198-0.66298 1.5364-0.24569 1.5836-0.87773 0.07657-1.0266-0.55844-0.05515-1.0154-0.23789-1.0154-0.40609 0-0.27047 0.92869-0.18004 2.1854 0.21281 0.61537 0.19237 1.9746-0.20103 1.9746-0.5715 0-0.40276-3.509-8.1555-6.7636-14.943-1.384-2.8865-2.5164-5.5768-2.5164-5.9784 0-0.47948 0.24723-0.8049 0.72-0.94771 1.9939-0.60231 33.331-15.901 33.66-16.433 0.28613-0.46297-1.1129-1.3129-2.1611-1.3129-0.61631 0-1.812-0.64466-3.6303-1.9573-2.4343-1.7573-2.8759-1.9598-4.3228-1.9816-1.2603-0.019008-1.7033-0.16782-2.0327-0.6827-0.37212-0.58167-2.7198-9.7054-5.0967-19.807-0.44886-1.9076-0.81611-4.3241-0.81611-5.37 0-1.3014-0.13638-1.954-0.43204-2.0675-0.23762-0.09118-1.9296 0.14426-3.76 0.52322-1.8304 0.37895-4.5395 0.74256-6.0202 0.80801-2.1346 0.09435-2.8765 0.26025-3.5821 0.80098-1.8679 1.4315-5.9681 10.887-10.049 23.174-0.58458 1.76-1.4448 4.2058-1.9116 5.4351-0.90613 2.3863-2.6748 9.6678-3.499 14.405-0.27558 1.584-0.64217 3.3693-0.81464 3.9672s-0.46403 2.254-0.64793 3.68c-0.18389 1.426-0.56081 4.2508-0.8376 6.2773-0.64115 4.6942-0.53275 14.001 0.17297 14.85 0.25223 0.30348 0.97223 0.83676 1.6 1.185 0.62777 0.3483 1.7174 0.98341 2.4214 1.4114s1.6064 0.78045 2.0053 0.78335c0.39892 3e-3 3.2674-0.65169 6.3744-1.4546zm51.919-66.349c0.36398-0.51117 0.66179-1.0289 0.66179-1.1506s0.29685-0.63809 0.65966-1.1476c0.36281-0.50953 0.6527-1.1798 0.6442-1.4894-0.0085-0.30964-0.02326-0.77899-0.03283-1.043-0.0096-0.264 0.11378-1.0951 0.27409-1.8469 0.16446-0.77128 0.1702-1.4418 0.01318-1.5389-0.66759-0.41259-0.12833-0.73976 2.0417-1.2387 1.276-0.2934 2.608-0.60052 2.96-0.6825 0.352-0.08198 2.728-0.50005 5.28-0.92903 6.0647-1.0195 10.726-1.9661 11.321-2.299 0.36274-0.203-0.79784-1.3948-4.8623-4.9931-2.9363-2.5995-8.0028-7.1134-11.259-10.031-3.256-2.9174-6.4822-5.7751-7.1694-6.3504l-1.2494-1.046 1.4094-1.7223c1.6321-1.9945 16.079-16.023 20.209-19.624 1.54-1.3427 2.7929-2.616 2.7841-2.8296-0.01974-0.48366-4.7682-4.0909-7.7656-5.8993-1.2316-0.74306-2.9508-1.5873-3.8204-1.8762-4.7481-1.5771-11.448 1.4666-21.193 9.6272-10.265 8.5962-13.789 12.271-21.765 22.694-4.0437 5.2843-6.3367 8.7525-6.1347 9.279 0.09491 0.24732 2.9862 2.6289 6.425 5.2923 7.0849 5.4873 6.5759 4.7377 7.2541 10.684 0.26418 2.3165 0.53885 3.5242 0.82667 3.6346 0.23707 0.09097 2.4106-0.12342 4.83-0.47644l4.3989-0.64184 1.28 0.75122c0.704 0.41317 3.296 2.3357 5.76 4.2722 2.464 1.9366 4.7222 3.5278 5.0182 3.536 0.29601 0.0082 0.83601-0.40328 1.2-0.91445zm63.382-13.734c0-0.53162-6.6354-11.488-8.3798-13.837-0.98886-1.3315-2.7782-3.4915-3.9763-4.8s-2.2906-2.5232-2.4279-2.6992c-0.85182-1.0924-3.5204-4.3179-3.5638-4.3076-1.9379 0.46068-5.1765 1.6002-5.26 1.8507-0.09135 0.27405 23.148 24.057 23.507 24.057 0.0552 0 0.10029-0.11874 0.10029-0.26387z" fill="#f55987"/>
   <path id="path1536" d="m67.68 160.13c-12.031-0.41418-25.299-2.6099-42.24-6.9902-6.3144-1.6326-14.406-4.8882-18.88-7.5963-2.5391-1.5369-2.9842-1.9464-3.76-3.4598-0.86949-1.6961-0.87998-1.7895-0.87802-7.8193 0.0019699-6.0689 0.634-12.61 1.7581-18.196 3.1434-15.619 3.7715-17.912 8.3893-30.627 3.8911-10.714 5.5344-14.368 12.016-26.72 6.7397-12.845 10.391-18.263 19.628-29.12 3.8272-4.499 6.3037-6.952 12.55-12.431 7.2017-6.3169 12.791-10.124 17.778-12.109 2.188-0.87076 3.1121-1.0538 5.8351-1.1556 3.0557-0.11423 3.3727-0.063774 5.7086 0.90865 3.5717 1.4869 12.3 7.5712 17.219 12.003 0.92218 0.83082 2.6847 2.268 3.9167 3.1937 3.6502 2.7427 8.6959 7.9464 13.332 13.749 2.3904 2.992 5.3052 6.592 6.4773 8 2.942 3.5341 4.5258 5.9608 9.085 13.92 3.8464 6.7147 11.657 22.081 13.988 27.52 3.0232 7.0535 6.609 16.227 7.638 19.54 1.017 3.2743 2.0076 7.9906 3.5245 16.78 0.27336 1.584 0.65957 5.0647 0.85823 7.7349 0.61877 8.317-0.30022 12.9-2.9998 14.959-1.3667 1.0424-5.7635 3.1023-9.5684 4.4827-1.6361 0.59357-4.7748 1.7947-6.9748 2.6692-8.561 3.4029-16.042 5.6788-20.273 6.1678-1.6098 0.18603-4.5828 0.68575-6.6068 1.1105-4.6074 0.96685-12.821 2.2175-18.863 2.8723-4.4167 0.47863-21.769 0.84933-28.657 0.6122zm-39.68-13.077c3.1406-0.50825 4-1.0874 4-2.6957 0-0.46934 0.21688-1.163 0.48196-1.5414 0.4212-0.60135 0.4258-0.90277 0.03644-2.3912-0.46862-1.7914-0.76981-2.4612-6.7334-14.971-2.0524-4.3055-3.6897-8.1082-3.6384-8.4505 0.06913-0.46095 1.3791-1.2187 5.0533-2.9232 17.611-8.1697 37.12-17.813 37.12-18.347 0-0.12886-0.72-0.77181-1.6-1.4288-1.1507-0.85905-1.6-1.4121-1.6-1.9694 0-0.4262-0.13452-0.85805-0.29893-0.95966-0.16441-0.10161-0.2186-0.67977-0.12042-1.2848 0.15777-0.9722 0.0256-1.2514-1.1371-2.4026-0.72358-0.71638-1.3989-1.6227-1.5006-2.0141-0.10177-0.39137-0.57156-0.99076-1.044-1.332-2.213-1.5984-15.153-11.848-16.331-12.935-0.91594-0.84559-1.3283-1.4899-1.3283-2.0754 0-0.46704 0.1403-0.84916 0.31178-0.84916 0.17148 0 0.55233-0.46516 0.84633-1.0337 0.75928-1.4683 5.6476-6.6886 5.9656-6.3706 0.14569 0.14569 0.40049 1.6193 0.56622 3.2746 0.44523 4.4469 0.62911 5.3409 1.1389 5.5365 0.25355 0.0973 1.6468-0.0288 3.0961-0.2802 1.4493-0.2514 3.5711-0.54275 4.7151-0.64742l2.08-0.19033 4.8532 3.7756c2.6693 2.0766 5.8373 4.4997 7.04 5.3847 1.2027 0.88501 4.5213 3.3804 7.3747 5.5454 4.2966 3.26 5.3137 3.8971 5.92 3.708 1.0731-0.33462 11.374-5.5165 11.553-5.8114 0.08357-0.13811 0.39687-1.5471 0.69624-3.1311 0.29937-1.584 0.90195-4.4505 1.3391-6.3699 0.43713-1.9194 0.81941-4.5391 0.84952-5.8215l0.054746-2.3316 1.315-0.65848c0.72328-0.36216 1.5873-0.66076 1.92-0.66355 0.98411-0.0083 13.853-2.1772 14.203-2.3939 0.75111-0.46421 0.1252-1.235-3.2784-4.0375-5.4244-4.4663-8.2772-7.2193-9.0206-8.705-0.40753-0.81447-3.1235-3.7561-6.9372-7.5137-5.4641-5.3837-6.2476-6.2795-6.1121-6.9883 0.12596-0.65889-0.20319-1.1869-1.736-2.7847-1.0403-1.0844-2.2336-2.3645-2.6519-2.8447l-0.76049-0.87296 2.9881-3.047c1.6435-1.6759 3.1536-3.047 3.3558-3.047s5.6793 5.364 12.171 11.92c15.157 15.306 31.508 31.382 31.712 31.178 0.21118-0.21118-0.4007-1.373-3.8226-7.2581-3.4487-5.9312-4.9241-8.0259-9.8047-13.92-2.0403-2.464-4.8129-5.848-6.1612-7.52-1.3484-1.672-3.1497-3.76-4.0031-4.64-2.0932-2.1586-6.7237-6.2714-7.8222-6.9477-0.48931-0.30122-1.9405-1.4642-3.2249-2.5843-1.2844-1.1201-2.9414-2.4378-3.6823-2.9281-0.7409-0.4903-1.4301-1.1274-1.5316-1.4157-0.44876-1.2752-8.9014-6.9627-11.758-7.9114-4.7481-1.5771-11.448 1.4666-21.193 9.6272-10.266 8.5976-13.799 12.281-21.765 22.695-3.9591 5.1758-6.2253 8.5489-6.2333 9.2778-0.0037 0.33723-0.62723 1.6332-1.3856 2.88-2.8536 4.6912-3.707 6.1848-5.1345 8.9869-0.80699 1.584-1.6746 3.24-1.928 3.68-4.4816 7.7807-6.298 12.069-11.928 28.16-4.0356 11.534-7.7934 31.285-7.7888 40.937 0.00256 5.3195 0.1799 5.7728 2.9713 7.5955 1.2688 0.82847 2.9549 1.7161 3.7469 1.9725s3.528 1.1601 6.08 2.0081 5.072 1.547 5.6 1.5533c0.528 6e-3 2.256-0.19832 3.84-0.45466z" fill="#f45d7d"/>
   <path id="path1534" d="m67.68 160.13c-12.031-0.41418-25.299-2.6099-42.24-6.9902-6.3144-1.6326-14.406-4.8882-18.88-7.5963-2.5391-1.5369-2.9842-1.9464-3.76-3.4598-0.86949-1.6961-0.87998-1.7895-0.87802-7.8193 0.0019699-6.0689 0.634-12.61 1.7581-18.196 3.1434-15.619 3.7715-17.912 8.3893-30.627 3.8911-10.714 5.5344-14.368 12.016-26.72 6.7397-12.845 10.391-18.263 19.628-29.12 3.8272-4.499 6.3037-6.952 12.55-12.431 7.2017-6.3169 12.791-10.124 17.778-12.109 2.188-0.87076 3.1121-1.0538 5.8351-1.1556 3.0557-0.11423 3.3727-0.063774 5.7086 0.90865 3.5717 1.4869 12.3 7.5712 17.219 12.003 0.92218 0.83082 2.6847 2.268 3.9167 3.1937 3.6502 2.7427 8.6959 7.9464 13.332 13.749 2.3904 2.992 5.3052 6.592 6.4773 8 2.942 3.5341 4.5258 5.9608 9.085 13.92 3.8464 6.7147 11.657 22.081 13.988 27.52 3.0232 7.0535 6.609 16.227 7.638 19.54 1.017 3.2743 2.0076 7.9906 3.5245 16.78 0.27336 1.584 0.65957 5.0647 0.85823 7.7349 0.61877 8.317-0.30022 12.9-2.9998 14.959-1.3667 1.0424-5.7635 3.1023-9.5684 4.4827-1.6361 0.59357-4.7748 1.7947-6.9748 2.6692-8.561 3.4029-16.042 5.6788-20.273 6.1678-1.6098 0.18603-4.5828 0.68575-6.6068 1.1105-4.6074 0.96685-12.821 2.2175-18.863 2.8723-4.4167 0.47863-21.769 0.84933-28.657 0.6122zm-29.373-8.5282c-0.51131-1.2705-6.7817-14.702-11.15-23.884-3.9546-8.3121-5.0026-10.781-4.7209-11.12 0.19913-0.23993 0.48214-0.43624 0.62891-0.43624 0.38615 0 25.634-11.958 39.015-18.479 9.0439-4.4071 18.77-9.0053 20.8-9.8338 2.7552-1.1244 12.266-5.6454 12.8-6.0843 0.264-0.21716 4.44-2.2993 9.28-4.6269 4.84-2.3277 8.9199-4.3466 9.0664-4.4866 0.14653-0.13997 0.46042-1.6034 0.69755-3.2521 0.97218-6.7594 1.2129-8.1342 1.4846-8.4785 0.15664-0.19848 0.64778-3.1445 1.0914-6.5467 0.44364-3.4022 0.86586-6.245 0.93827-6.3174 0.0724-0.07242 2.7664 2.5247 5.9867 5.7714 5.9748 6.0238 11.359 11.017 11.609 10.766 0.22422-0.22422-7.7532-13.977-9.5318-16.433-0.89238-1.232-2.9326-3.824-4.5338-5.76-1.6012-1.936-4.3434-5.32-6.0938-7.52-3.6634-4.6045-8.0247-8.9776-12.155-12.188-1.584-1.2312-3.7553-2.9886-4.8252-3.9053-5.9021-5.0575-12.676-9.6905-15.577-10.654-4.7481-1.5771-11.448 1.4666-21.193 9.6272-10.265 8.5962-13.789 12.271-21.765 22.694-5.3733 7.0217-8.6127 12.396-14.868 24.666-4.2509 8.3386-6.1758 12.77-9.3828 21.6-4.3173 11.887-4.7129 13.294-7.6944 27.36-1.5043 7.097-2.4553 14.852-2.4532 20.005 0.0025 6.0316 0.07193 6.2049 3.2795 8.1814 4.5951 2.8315 11.695 5.486 21.359 7.9853 6.9493 1.7973 8.172 2.0059 7.9075 1.3487z" fill="#f66e68"/>
   <path id="path1532" d="m67.68 160.13c-12.031-0.41418-25.299-2.6099-42.24-6.9902-6.3144-1.6326-14.406-4.8882-18.88-7.5963-2.5391-1.5369-2.9842-1.9464-3.76-3.4598-0.86949-1.6961-0.87998-1.7895-0.87802-7.8193 0.0019699-6.0689 0.634-12.61 1.7581-18.196 3.1434-15.619 3.7715-17.912 8.3893-30.627 3.8911-10.714 5.5344-14.368 12.016-26.72 6.7397-12.845 10.391-18.263 19.628-29.12 3.8272-4.499 6.3037-6.952 12.55-12.431 7.2017-6.3169 12.791-10.124 17.778-12.109 2.188-0.87076 3.1121-1.0538 5.8351-1.1556 3.0557-0.11423 3.3727-0.063774 5.7086 0.90865 3.5717 1.4869 12.3 7.5712 17.219 12.003 0.92218 0.83082 2.6847 2.268 3.9167 3.1937 3.6502 2.7427 8.6959 7.9464 13.332 13.749 2.3904 2.992 5.3052 6.592 6.4773 8 2.942 3.5341 4.5258 5.9608 9.085 13.92 3.8464 6.7147 11.657 22.081 13.988 27.52 3.0232 7.0535 6.609 16.227 7.638 19.54 1.017 3.2743 2.0076 7.9906 3.5245 16.78 0.27336 1.584 0.65957 5.0647 0.85823 7.7349 0.61877 8.317-0.30022 12.9-2.9998 14.959-1.3667 1.0424-5.7635 3.1023-9.5684 4.4827-1.6361 0.59357-4.7748 1.7947-6.9748 2.6692-8.561 3.4029-16.042 5.6788-20.273 6.1678-1.6098 0.18603-4.5828 0.68575-6.6068 1.1105-4.6074 0.96685-12.821 2.2175-18.863 2.8723-4.4167 0.47863-21.769 0.84933-28.657 0.6122zm-28.408-8.0482c-3.5979-11.836-19.742-33.214-13.032-37.037 5.431-2.4742 12.446-5.7689 26.24-12.323 19.435-9.2349 31.61-14.766 34.114-15.497 0.64024-0.18689 0.68314-0.05759 0.84578 2.5493 0.09423 1.5104 0.25655 2.8314 0.3607 2.9356 0.25119 0.2512 2.5108-1.1361 13.159-8.0791 6.8311-4.4541 10.827-6.8685 11.367-6.8685 0.32721 0 0.68392-0.144 0.79269-0.32s0.58527-0.31815 1.0589-0.31588c1.0146 0.0049 3.1597 2.3327 12.307 13.356l1.9252 2.32h2.6896c3.2203 0 3.6171-0.29781 4.9611-3.723 0.47415-1.2084 1.8788-4.789 3.1215-7.957l2.2594-5.76-0.67736-1.6c-1.6714-3.948-11.913-22.073-14.465-25.6-0.89152-1.232-2.931-3.824-4.5322-5.76-1.6012-1.936-4.3434-5.32-6.0938-7.52-3.6634-4.6045-8.0247-8.9776-12.155-12.188-1.584-1.2312-3.7553-2.9886-4.8252-3.9053-5.9021-5.0575-12.676-9.6905-15.577-10.654-4.7481-1.5771-11.448 1.4666-21.193 9.6272-10.265 8.5962-13.789 12.271-21.765 22.694-5.3733 7.0217-8.6127 12.396-14.868 24.666-4.2509 8.3386-6.1758 12.77-9.3828 21.6-4.3173 11.887-4.7129 13.294-7.6944 27.36-1.5043 7.097-2.4553 14.852-2.4532 20.005 0.0025 6.0316 0.07193 6.2049 3.2795 8.1814 4.766 2.9368 11.852 5.5471 22.159 8.1629 7.539 1.9133 8.29 2.067 8.0719 1.651z" fill="#f77959"/>
   <path id="path1530" d="m67.68 160.13c-12.031-0.41418-25.299-2.6099-42.24-6.9902-6.3144-1.6326-14.406-4.8882-18.88-7.5963-2.5391-1.5369-2.9842-1.9464-3.76-3.4598-0.86949-1.6961-0.87998-1.7895-0.87802-7.8193 0.0019699-6.0689 0.634-12.61 1.7581-18.196 3.1434-15.619 3.7715-17.912 8.3893-30.627 3.8911-10.714 5.5344-14.368 12.016-26.72 6.7397-12.845 10.391-18.263 19.628-29.12 3.8272-4.499 6.3037-6.952 12.55-12.431 7.2017-6.3169 12.791-10.124 17.778-12.109 2.188-0.87076 3.1121-1.0538 5.8351-1.1556 3.0557-0.11423 3.3727-0.063774 5.7086 0.90865 3.5717 1.4869 12.3 7.5712 17.219 12.003 0.92218 0.83082 2.6847 2.268 3.9167 3.1937 3.6502 2.7427 8.6959 7.9464 13.332 13.749 2.3904 2.992 5.3052 6.592 6.4773 8 2.942 3.5341 4.5258 5.9608 9.085 13.92 3.8464 6.7147 11.657 22.081 13.988 27.52 3.0232 7.0535 6.609 16.227 7.638 19.54 1.017 3.2743 2.0076 7.9906 3.5245 16.78 0.27336 1.584 0.65957 5.0647 0.85823 7.7349 0.61877 8.317-0.30022 12.9-2.9998 14.959-1.3667 1.0424-5.7635 3.1023-9.5684 4.4827-1.6361 0.59357-4.7748 1.7947-6.9748 2.6692-8.561 3.4029-16.042 5.6788-20.273 6.1678-1.6098 0.18603-4.5828 0.68575-6.6068 1.1105-4.6074 0.96685-12.821 2.2175-18.863 2.8723-4.4167 0.47863-21.769 0.84933-28.657 0.6122zm18.32-5.1229c0.78995-0.90531 1.04-1.4905 1.04-2.4338 0-1.0628 0.22961-1.4715 1.5923-2.8342 0.87576-0.87576 2.4216-2.6329 3.4352-3.9048s3.5662-4.4005 5.6726-6.9525c2.1063-2.552 4.8371-5.864 6.0684-7.36 1.2313-1.496 2.8374-3.296 3.5691-4s1.3871-1.4442 1.4564-1.6448c0.0814-0.23567 2.4996-0.53755 6.8304-0.85267 5.2744-0.38379 6.7815-0.59338 7.0662-0.98271 0.55995-0.76578 7.5459-18.354 13.539-34.086l5.4118-14.206-1.0371-2.2736c-2.2775-4.9931-11.765-21.731-14.349-25.314-0.88845-1.232-2.9255-3.824-4.5267-5.76-1.6012-1.936-4.3434-5.32-6.0938-7.52-3.6634-4.6045-8.0247-8.9776-12.155-12.188-1.584-1.2312-3.7553-2.9886-4.8252-3.9053-5.9021-5.0575-12.676-9.6905-15.577-10.654-4.7481-1.5771-11.448 1.4666-21.193 9.6272-10.265 8.5962-13.789 12.271-21.765 22.694-5.3733 7.0217-8.6127 12.396-14.868 24.666-4.2509 8.3386-6.1758 12.77-9.3828 21.6-4.3173 11.887-4.7129 13.294-7.6944 27.36-1.5043 7.097-2.4553 14.852-2.4532 20.005 0.0025 6.0316 0.07193 6.2049 3.2795 8.1814 4.6746 2.8805 11.826 5.5353 21.516 7.9875 18.464 4.6723 31.633 6.2808 49.283 6.0194l5.12-0.0758zm-59.829-31.239c-2.7609-4.9693-3.4645-6.5602-3.0407-6.8748 0.58384-0.43345 6.8293-3.2916 7.1926-3.2916 0.36496 0 3.7125 4.0974 4.6612 5.7051 0.51814 0.87819 0.57037 1.2056 0.26921 1.6879-0.20551 0.32907-0.37677 0.92426-0.38059 1.3226-0.0058 0.6044-0.56937 0.98926-3.4037 2.3243-1.8682 0.88-3.4937 1.6389-3.6122 1.6864-0.11851 0.0475-0.87711-1.1045-1.6858-2.56z" fill="#f68447"/>
   <path id="path1528" d="m67.68 160.13c-12.031-0.41418-25.299-2.6099-42.24-6.9902-6.3144-1.6326-14.406-4.8882-18.88-7.5963-2.5391-1.5369-2.9842-1.9464-3.76-3.4598-0.86949-1.6961-0.87998-1.7895-0.87802-7.8193 0.0019699-6.0689 0.634-12.61 1.7581-18.196 3.1434-15.619 3.7715-17.912 8.3893-30.627 3.8911-10.714 5.5344-14.368 12.016-26.72 6.7397-12.845 10.391-18.263 19.628-29.12 3.8272-4.499 6.3037-6.952 12.55-12.431 7.2017-6.3169 12.791-10.124 17.778-12.109 2.188-0.87076 3.1121-1.0538 5.8351-1.1556 3.0557-0.11423 3.3727-0.063774 5.7086 0.90865 3.5717 1.4869 12.3 7.5712 17.219 12.003 0.92218 0.83082 2.6847 2.268 3.9167 3.1937 3.6502 2.7427 8.6959 7.9464 13.332 13.749 2.3904 2.992 5.3052 6.592 6.4773 8 2.942 3.5341 4.5258 5.9608 9.085 13.92 3.8464 6.7147 11.657 22.081 13.988 27.52 3.0232 7.0535 6.609 16.227 7.638 19.54 1.017 3.2743 2.0076 7.9906 3.5245 16.78 0.27336 1.584 0.65957 5.0647 0.85823 7.7349 0.61877 8.317-0.30022 12.9-2.9998 14.959-1.3667 1.0424-5.7635 3.1023-9.5684 4.4827-1.6361 0.59357-4.7748 1.7947-6.9748 2.6692-8.561 3.4029-16.042 5.6788-20.273 6.1678-1.6098 0.18603-4.5828 0.68575-6.6068 1.1105-4.6074 0.96685-12.821 2.2175-18.863 2.8723-4.4167 0.47863-21.769 0.84933-28.657 0.6122zm23.68-4.1324c5.2813-0.40372 8.3267-0.88752 8.8002-1.398 0.26413-0.28476 2.054-1.8857 3.9775-3.5577 9.0354-7.8541 25.65-24.932 25.782-25.169 1.875-2.1308 1.3356-1.1921 0.52397-3.5004-0.41394-1.2161-1.2052-3.107-1.7583-4.2019-0.55312-1.095-1.0057-2.279-1.0057-2.631 0-0.53041 5.5435-16.003 12.651-35.31l1.5062-4.0916-0.87971-1.9884c-2.1002-4.747-12.042-22.375-14.656-25.988-0.89152-1.232-2.931-3.824-4.5322-5.76-1.6012-1.936-4.3434-5.32-6.0938-7.52-3.6634-4.6045-8.0247-8.9776-12.155-12.188-1.584-1.2312-3.7553-2.9886-4.8252-3.9053-5.9021-5.0575-12.676-9.6905-15.577-10.654-4.7481-1.5771-11.448 1.4666-21.193 9.6272-10.265 8.5962-13.789 12.271-21.765 22.694-5.3733 7.0217-8.6127 12.396-14.868 24.666-4.2509 8.3386-6.1758 12.77-9.3828 21.6-4.3173 11.887-4.7129 13.294-7.6944 27.36-1.5043 7.097-2.4553 14.852-2.4532 20.005 0.0025 6.0316 0.07193 6.2049 3.2795 8.1814 7.0097 4.3194 20.54 8.4248 38.319 11.627 7.5128 1.3531 13.185 1.9455 21.44 2.2393 6.2961 0.22408 18.836 0.14827 22.56-0.13637z" fill="#f79133"/>
   <path id="path1516" d="m67.938 160.21c-11.948-0.42601-25.29-2.6043-42.24-6.9869-6.3144-1.6326-14.843-4.9663-19.318-7.6744-2.5391-1.5369-2.9998-2.1182-3.7756-3.6317-0.86448-1.6864-0.70809-1.9905-0.70614-7.6711 0.0019648-5.7355 0.59618-12.522 1.6956-17.985 4.7367-33.523 24.988-77.49 52.101-99.626 12.447-11.327 21.953-13.36 24.489-13.316 3.0049 0.02022 7.1907 0.70184 26.475 16.142 20.313 19.3 32.022 36.632 43.153 63.616 3.0232 7.0535 6.5162 16.419 7.5451 19.732 1.0177 3.2764 2.0215 8.1196 3.5234 16.843 0.27272 1.584 0.59218 5.0934 0.78629 7.6651 0.60275 7.9851-0.30472 12.978-2.9735 15.013-1.3667 1.0424-5.9354 3.1023-9.7403 4.4827-1.6361 0.59357-4.8685 1.8885-7.0685 2.7629-8.561 3.4029-17.452 5.5657-19.651 6.0326-1.5851 0.33664-5.5803 0.86789-7.6043 1.2926-4.5909 0.96339-12.519 2.1702-18.501 2.8183-4.3378 0.46994-21.418 0.73251-28.191 0.49102zm21.653-4.2671c3.256-0.15717 6.9779-0.65108 8.2979-0.82391 7.1319-0.93381 11.339-1.5963 17.294-2.7929 1.76-0.35363 5.5172-0.87594 6.7216-1.1592 3.9788-0.93567 10.478-2.4294 22.848-7.2431 10.284-4.002 11.174-4.462 12.06-6.62 1.0952-2.6657 0.90529-10.724-0.38328-17.851-2.4322-13.453-2.6725-14.017-3.6719-16.736-0.88375-2.4049-6.9256-17.906-7.2734-18.786-12.532-27.292-21.823-40.159-41.845-60.603-11.181-9.2058-14.999-13.953-23.647-15.208-6.7872 0.38933-16.569 8.1577-22.174 13.242-33.17 28.379-49.905 82.223-51.328 104.59-0.55548 4.4474-0.8432 11.901-0.30235 13.179 0.75838 1.7924 5.3308 4.5284 14.183 7.8381 4.3715 1.6345 18.861 5.5756 24.336 6.3831 0.88 0.1298 3.5347 0.6104 5.661 0.88813 3.7593 0.49104 8.4553 1.0365 14.328 1.4785 8.3737 0.28908 16.659 0.61254 24.895 0.21892z" fill="#090506"/>
  </g>
 </g>
</svg>